<svg width="24" height="25" viewBox="0 0 24 25" fill="none" xmlns="http://www.w3.org/2000/svg">
<g id="settings" clip-path="url(#clip0_410_903)">
<path id="Vector" d="M12 15.5C13.6569 15.5 15 14.1569 15 12.5C15 10.8431 13.6569 9.5 12 9.5C10.3431 9.5 9 10.8431 9 12.5C9 14.1569 10.3431 15.5 12 15.5Z" stroke="#8E9090" stroke-width="2" stroke-linecap="round" stroke-linejoin="round"/>
<path id="Vector_2" d="M19.286 16.4606C19.2272 16.1362 19.2669 15.8016 19.4 15.5C19.5268 15.2042 19.7372 14.952 20.0055 14.7743C20.2738 14.5966 20.5882 14.5013 20.91 14.5H21C21.5304 14.5 22.0391 14.2893 22.4142 13.9142C22.7893 13.5391 23 13.0304 23 12.5C23 11.9696 22.7893 11.4609 22.4142 11.0858C22.0391 10.7107 21.5304 10.5 21 10.5H20.83C20.5082 10.4987 20.1938 10.4034 19.9255 10.2257C19.6572 10.048 19.4468 9.79577 19.32 9.5V9.42C19.1869 9.11838 19.1472 8.78381 19.206 8.45941C19.2648 8.13502 19.4195 7.83568 19.65 7.6L19.71 7.54C19.896 7.35425 20.0435 7.13368 20.1441 6.89088C20.2448 6.64808 20.2966 6.38783 20.2966 6.125C20.2966 5.86217 20.2448 5.60192 20.1441 5.35912C20.0435 5.11632 19.896 4.89575 19.71 4.71C19.5243 4.52405 19.3037 4.37653 19.0609 4.27588C18.8181 4.17523 18.5578 4.12343 18.295 4.12343C18.0322 4.12343 17.7719 4.17523 17.5291 4.27588C17.2863 4.37653 17.0657 4.52405 16.88 4.71L16.82 4.77C16.5843 5.00054 16.285 5.15519 15.9606 5.214C15.6362 5.27282 15.3016 5.23312 15 5.1C14.7042 4.97324 14.452 4.76276 14.2743 4.49447C14.0966 4.22618 14.0013 3.91179 14 3.59V3.5C14 2.96957 13.7893 2.46086 13.4142 2.08579C13.0391 1.71071 12.5304 1.5 12 1.5C11.4696 1.5 10.9609 1.71071 10.5858 2.08579C10.2107 2.46086 10 2.96957 10 3.5V3.67C9.99872 3.99179 9.90337 4.30618 9.72569 4.57447C9.54802 4.84276 9.29577 5.05324 9 5.18H8.92C8.61838 5.31312 8.28381 5.35282 7.95941 5.294C7.63502 5.23519 7.33568 5.08054 7.1 4.85L7.04 4.79C6.85425 4.60405 6.63368 4.45653 6.39088 4.35588C6.14808 4.25523 5.88783 4.20343 5.625 4.20343C5.36217 4.20343 5.10192 4.25523 4.85912 4.35588C4.61632 4.45653 4.39575 4.60405 4.21 4.79C4.02405 4.97575 3.87653 5.19632 3.77588 5.43912C3.67523 5.68192 3.62343 5.94217 3.62343 6.205C3.62343 6.46783 3.67523 6.72808 3.77588 6.97088C3.87653 7.21368 4.02405 7.43425 4.21 7.62L4.27 7.68C4.50054 7.91568 4.65519 8.21502 4.714 8.53941C4.77282 8.86381 4.73312 9.19838 4.6 9.5C4.48572 9.81074 4.28059 10.0799 4.0113 10.2725C3.742 10.4651 3.42099 10.5723 3.09 10.58H3C2.46957 10.58 1.96086 10.7907 1.58579 11.1658C1.21071 11.5409 1 12.0496 1 12.58C1 13.1104 1.21071 13.6191 1.58579 13.9942C1.96086 14.3693 2.46957 14.58 3 14.58H3.17C3.49179 14.5813 3.80618 14.6766 4.07447 14.8543C4.34276 15.032 4.55324 15.2842 4.68 15.58C4.81312 15.8816 4.85282 16.2162 4.794 16.5406C4.73519 16.865 4.58054 17.1643 4.35 17.4L4.29 17.46C4.10405 17.6457 3.95653 17.8663 3.85588 18.1091C3.75523 18.3519 3.70343 18.6122 3.70343 18.875C3.70343 19.1378 3.75523 19.3981 3.85588 19.6409C3.95653 19.8837 4.10405 20.1043 4.29 20.29C4.47575 20.476 4.69632 20.6235 4.93912 20.7241C5.18192 20.8248 5.44217 20.8766 5.705 20.8766C5.96783 20.8766 6.22808 20.8248 6.47088 20.7241C6.71368 20.6235 6.93425 20.476 7.12 20.29L7.18 20.23C7.41568 19.9995 7.71502 19.8448 8.03941 19.786C8.36381 19.7272 8.69838 19.7669 9 19.9C9.31074 20.0143 9.5799 20.2194 9.77251 20.4887C9.96512 20.758 10.0723 21.079 10.08 21.41V21.5C10.08 22.0304 10.2907 22.5391 10.6658 22.9142C11.0409 23.2893 11.5496 23.5 12.08 23.5C12.6104 23.5 13.1191 23.2893 13.4942 22.9142C13.8693 22.5391 14.08 22.0304 14.08 21.5V21.33C14.0813 21.0082 14.1766 20.6938 14.3543 20.4255C14.532 20.1572 14.7842 19.9468 15.08 19.82C15.3816 19.6869 15.7162 19.6472 16.0406 19.706C16.365 19.7648 16.6643 19.9195 16.9 20.15L16.96 20.21C17.1457 20.396 17.3663 20.5435 17.6091 20.6441C17.8519 20.7448 18.1122 20.7966 18.375 20.7966C18.6378 20.7966 18.8981 20.7448 19.1409 20.6441C19.3837 20.5435 19.6043 20.396 19.79 20.21C19.976 20.0243 20.1235 19.8037 20.2241 19.5609C20.3248 19.3181 20.3766 19.0578 20.3766 18.795C20.3766 18.5322 20.3248 18.2719 20.2241 18.0291C20.1235 17.7863 19.976 17.5657 19.79 17.38L19.73 17.32C19.4995 17.0843 19.3448 16.785 19.286 16.4606Z" stroke="#8E9090" stroke-width="2" stroke-linecap="round" stroke-linejoin="round"/>
</g>
<defs>
<clipPath id="clip0_410_903">
<rect width="24" height="24" fill="white" transform="translate(0 0.5)"/>
</clipPath>
</defs>
</svg>
