<svg width="140" height="35" viewBox="0 0 140 35" fill="none" xmlns="http://www.w3.org/2000/svg">
<g id="Group 120">
<g id="Group 119">
<path id="collab" d="M45.0977 34.6164C43.0317 34.6164 41.1671 34.1477 39.5041 33.2101C37.8663 32.2725 36.5688 30.9332 35.6113 29.192C34.6791 27.4507 34.2129 25.415 34.2129 23.0845C34.2129 20.7807 34.6916 18.7583 35.6491 17.0171C36.6066 15.2492 37.9168 13.8964 39.5797 12.9589C41.2427 12.0213 43.1073 11.5525 45.1733 11.5525C47.2394 11.5525 49.104 12.0213 50.7669 12.9589C52.4299 13.8964 53.7401 15.2492 54.6976 17.0171C55.6551 18.7583 56.1338 20.7807 56.1338 23.0845C56.1338 25.3882 55.6424 27.424 54.6598 29.192C53.7023 30.9332 52.3795 32.2725 50.6914 33.2101C49.0284 34.1477 47.1638 34.6164 45.0977 34.6164ZM45.0977 28.6696C46.3323 28.6696 47.3781 28.1874 48.2347 27.2231C49.1166 26.2588 49.5575 24.8792 49.5575 23.0845C49.5575 21.2897 49.1291 19.9102 48.2725 18.9458C47.441 17.9815 46.4079 17.4993 45.1733 17.4993C43.9135 17.4993 42.8679 17.9815 42.0364 18.9458C41.2049 19.8834 40.7892 21.2629 40.7892 23.0845C40.7892 24.8792 41.1923 26.2588 41.9986 27.2231C42.8301 28.1874 43.8632 28.6696 45.0977 28.6696ZM66.0254 4.56104V34.2949H59.5625V4.56104H66.0254ZM77.1718 4.56104V34.2949H70.7089V4.56104H77.1718ZM80.5704 23.0443C80.5704 20.7405 80.9735 18.7182 81.7798 16.9769C82.6113 15.2358 83.7325 13.8964 85.1435 12.9589C86.5546 12.0213 88.1293 11.5525 89.8679 11.5525C91.3545 11.5525 92.652 11.874 93.7607 12.5169C94.8945 13.1598 95.7638 14.0036 96.3685 15.0483V11.874H102.831V34.2949H96.3685V31.1206C95.7387 32.1654 94.8567 33.0092 93.7229 33.6521C92.6142 34.2949 91.3167 34.6164 89.8301 34.6164C88.1167 34.6164 86.5546 34.1477 85.1435 33.2101C83.7325 32.2457 82.6113 30.893 81.7798 29.1518C80.9735 27.3838 80.5704 25.348 80.5704 23.0443ZM96.3685 23.0845C96.3685 21.3701 95.915 20.0173 95.0079 19.0262C94.126 18.0351 93.0426 17.5395 91.7576 17.5395C90.4726 17.5395 89.3765 18.0351 88.4694 19.0262C87.5875 19.9905 87.1466 21.3299 87.1466 23.0443C87.1466 24.7586 87.5875 26.1248 88.4694 27.1427C89.3765 28.1338 90.4726 28.6294 91.7576 28.6294C93.0426 28.6294 94.126 28.1338 95.0079 27.1427C95.915 26.1516 96.3685 24.7988 96.3685 23.0845ZM113.97 15.0483C114.575 14.0036 115.444 13.1598 116.578 12.5169C117.712 11.874 119.01 11.5525 120.471 11.5525C122.209 11.5525 123.784 12.0213 125.195 12.9589C126.606 13.8964 127.714 15.2358 128.521 16.9769C129.352 18.7182 129.768 20.7405 129.768 23.0443C129.768 25.348 129.352 27.3838 128.521 29.1518C127.714 30.893 126.606 32.2457 125.195 33.2101C123.784 34.1477 122.209 34.6164 120.471 34.6164C118.984 34.6164 117.686 34.3084 116.578 33.6922C115.469 33.0493 114.6 32.2055 113.97 31.1608V34.2949H107.507V4.56104H113.97V15.0483ZM123.192 23.0443C123.192 21.3299 122.738 19.9905 121.831 19.0262C120.949 18.0351 119.853 17.5395 118.543 17.5395C117.258 17.5395 116.162 18.0351 115.255 19.0262C114.373 20.0173 113.932 21.3701 113.932 23.0845C113.932 24.7988 114.373 26.1516 115.255 27.1427C116.162 28.1338 117.258 28.6294 118.543 28.6294C119.828 28.6294 120.924 28.1338 121.831 27.1427C122.738 26.1248 123.192 24.7586 123.192 23.0443ZM136.182 34.6164C135.049 34.6164 134.117 34.2682 133.386 33.5717C132.68 32.8484 132.327 31.9644 132.327 30.9197C132.327 29.8483 132.68 28.9509 133.386 28.2276C134.117 27.5044 135.049 27.1427 136.182 27.1427C137.291 27.1427 138.198 27.5044 138.904 28.2276C139.635 28.9509 140 29.8483 140 30.9197C140 31.9644 139.635 32.8484 138.904 33.5717C138.198 34.2682 137.291 34.6164 136.182 34.6164Z" fill="#3F57FF"/>
</g>
<path id="collab_2" d="M3.17809e-05 17C3.17809e-05 13.5644 0.639728 10.5633 1.91913 7.9965C3.23509 5.42972 5.04453 3.45528 7.34745 2.07316C9.68693 0.691043 12.3554 -6.67572e-06 15.3529 -6.67572e-06C19.1911 -6.67572e-06 22.3896 1.08594 24.9484 3.25783C27.5438 5.42972 29.2436 8.49017 30.0477 12.439H20.0684C19.2276 9.91178 17.6009 8.64808 15.1884 8.64808C13.4703 8.64808 12.0995 9.37868 11.076 10.8397C10.0525 12.2613 9.54071 14.3147 9.54071 17C9.54071 19.6853 10.0525 21.7585 11.076 23.2195C12.0995 24.6411 13.4703 25.3519 15.1884 25.3519C17.6009 25.3519 19.2276 24.0882 20.0684 21.561H30.0477C29.2436 25.4309 27.5438 28.4715 24.9484 30.6829C22.353 32.8944 19.1546 34 15.3529 34C12.3554 34 9.68693 33.309 7.34745 31.9268C5.04453 30.5447 3.23509 28.5703 1.91913 26.0035C0.639728 23.4366 3.17809e-05 20.4355 3.17809e-05 17Z" fill="#3F57FF"/>
</g>
</svg>
