<svg width="60" height="34" viewBox="0 0 60 34" fill="none" xmlns="http://www.w3.org/2000/svg">
<g id="Group 117">
<path id="collab" d="M0 17C0 13.5645 0.765725 10.5634 2.29719 7.99651C3.87241 5.42973 6.03833 3.45529 8.79496 2.07317C11.5953 0.69105 14.7895 0 18.3775 0C22.9719 0 26.8006 1.08595 29.8635 3.25784C32.9702 5.42973 35.0049 8.49018 35.9675 12.439H24.0221C23.0156 9.91178 21.0685 8.64808 18.1806 8.64808C16.1241 8.64808 14.4832 9.37868 13.2581 10.8397C12.0329 12.2613 11.4203 14.3147 11.4203 17C11.4203 19.6853 12.0329 21.7585 13.2581 23.2195C14.4832 24.6411 16.1241 25.3519 18.1806 25.3519C21.0685 25.3519 23.0156 24.0882 24.0221 21.561H35.9675C35.0049 25.4309 32.9702 28.4715 29.8635 30.6829C26.7568 32.8944 22.9282 34 18.3775 34C14.7895 34 11.5953 33.309 8.79496 31.9268C6.03833 30.5447 3.87241 28.5703 2.29719 26.0035C0.765725 23.4366 0 20.4355 0 17ZM53.3709 32.223C51.4019 32.223 49.7836 31.7097 48.514 30.6829C47.2895 29.6167 46.6763 28.3136 46.6763 26.7735C46.6763 25.194 47.2895 23.8711 48.514 22.8049C49.7836 21.7387 51.4019 21.2056 53.3709 21.2056C55.2968 21.2056 56.8721 21.7387 58.0966 22.8049C59.3662 23.8711 60 25.194 60 26.7735C60 28.3136 59.3662 29.6167 58.0966 30.6829C56.8721 31.7097 55.2968 32.223 53.3709 32.223Z" fill="#3F57FF"/>
</g>
</svg>
